# xmcd
#
# Track frame offsets:
#	150
#	15224
#	27835
#	42446
#	54350
#	66950
#	79377
#	93800
#	105856
#	118443
#	131432
#	145599
#
# Disc length: 2163 seconds
#
# Revision: 0
# Processed by: cddbd v1.5.2PL0 Copyright (c) Steve Scherf et al.
# Submitted via: EZCDAudioConverter 3.1.0.1
#
DISCID=9208710c
DTITLE=Orquestra Românticos de Cuba - Recuerdos
DYEAR=1960
DGENRE=Blues
TTITLE0=Arrivederci Roma - O Sole Mio
TTITLE1=Devaneio - Inspiração
TTITLE2=Frenesi - Marta
TTITLE3=Quien Sera - Isle de Capri
TTITLE4=Sonhando Contigo - Oh Ba La La
TTITLE5=La Violetera - Capullito de Aleli
TTITLE6=Marimba - Toda Una Vida
TTITLE7=Sabra Dios - Mi Carta
TTITLE8=Espinita - Pecadora
TTITLE9=Sin Ti - Rayito de Luna
TTITLE10=My Devotion - You'll Never Know
TTITLE11=Sinceridad - Amado Mio
EXTD=
EXTT0=
EXTT1=
EXTT2=
EXTT3=
EXTT4=
EXTT5=
EXTT6=
EXTT7=
EXTT8=
EXTT9=
EXTT10=
EXTT11=
PLAYORDER=
